<?xml version="1.0" encoding="UTF-8" standalone="no"?>
<!DOCTYPE svg PUBLIC "-//W3C//DTD SVG 1.1//EN" "http://www.w3.org/Graphics/SVG/1.1/DTD/svg11.dtd">
<svg width="100%" height="100%" viewBox="0 0 3067 800" version="1.1" xmlns="http://www.w3.org/2000/svg" xmlns:xlink="http://www.w3.org/1999/xlink" xml:space="preserve" xmlns:serif="http://www.serif.com/" style="fill-rule:evenodd;clip-rule:evenodd;stroke-linejoin:round;stroke-miterlimit:2;">
    <g transform="matrix(2.66667,0,0,2.66667,0,0)">
        <g transform="matrix(1.46673,0,0,1.46673,-121.862,-335.22)">
            <g>
                <g>
                    <path d="M204.8,425.6C197.6,425.6 191.8,419.7 191.9,412.5C192,405.3 197.8,399.5 205,399.6C212.1,399.6 217.9,405.5 217.9,412.6C217.9,419.7 212.1,425.6 204.8,425.6C204.9,425.6 204.8,425.6 204.8,425.6Z" style="fill-rule:nonzero;"/>
                    <path d="M139.1,429L139.1,428C139.1,392.1 168.6,362.8 204.8,362.8L205.7,362.8L205.7,388.8L204.8,388.8C183.1,388.7 165.5,406.2 165.4,427.9L165.4,428.8L139.2,428.8L139.2,429L139.1,429Z" style="fill-rule:nonzero;"/>
                    <path d="M273.5,376C272.1,376 270.8,375.8 269.5,375.3C262.7,373.1 258.9,365.8 261.1,359C262.8,353.6 267.9,349.9 273.6,350C275,350 276.3,350.2 277.6,350.7C284.4,352.9 288.2,360.2 286,367C284.2,372.3 279.2,376 273.5,376Z" style="fill-rule:nonzero;"/>
                    <path d="M268.1,429.7C233.8,418.7 215,382 226,347.7L226,347.6L226.3,346.7L251.2,354.7L251,355.6C244.3,376.2 255.6,398.2 276.2,404.9L276.3,404.9L277.2,405.1L269.1,429.9L268.1,429.7Z" style="fill-rule:nonzero;"/>
                    <path d="M247.2,295.7C244.4,295.7 241.7,294.8 239.5,293.2C236.7,291.2 234.8,288.2 234.3,284.7C233.7,281.3 234.6,277.8 236.7,275C239.2,271.6 243.1,269.6 247.3,269.6C250.1,269.6 252.8,270.5 255,272.1C257.8,274.1 259.7,277.1 260.2,280.6C260.8,284 259.9,287.5 257.8,290.3C255.4,293.7 251.4,295.7 247.2,295.7Z" style="fill-rule:nonzero;"/>
                    <path d="M256.4,335.3C242.6,335.3 229.1,331 217.9,322.9L217.1,322.3L232.5,301.3L233.3,301.9C240,306.8 248.1,309.4 256.4,309.4C258.5,309.4 260.6,309.2 262.6,308.9C272.9,307.3 282.2,301.7 288.3,293.2L288.9,292.4L310.1,307.6L309.5,308.4C297.1,325.4 277.3,335.3 256.4,335.3Z" style="fill-rule:nonzero;"/>
                    <path d="M162.3,295.7C155.1,295.7 149.2,289.9 149.1,282.7C149.1,282 149.1,281.3 149.3,280.6C149.8,277.2 151.7,274.1 154.5,272.1C156.7,270.5 159.4,269.6 162.2,269.6C166.4,269.6 170.3,271.6 172.8,275C174.8,277.8 175.7,281.3 175.2,284.7C174.1,291.1 168.7,295.7 162.3,295.7Z" style="fill-rule:nonzero;"/>
                    <path d="M175.5,302.4L176.3,301.8C193.8,289.3 197.8,264.9 185.3,247.4C185.2,247.3 185.2,247.2 185.1,247.1L184.5,246.3L205.7,231.1L206.3,231.9C227.5,260.8 221.2,301.5 192.2,322.6C192,322.7 191.9,322.8 191.7,322.9L191,323.5L175.5,302.4Z" style="fill-rule:nonzero;"/>
                    <path d="M136,376C128.8,376.1 123,370.3 122.9,363.1C122.9,357.4 126.5,352.3 132,350.6C133.3,350.2 134.7,349.9 136.1,349.9C143.3,349.9 149.1,355.7 149.1,362.9C149.1,368.6 145.5,373.6 140.1,375.3C138.7,375.7 137.4,375.9 136,376Z" style="fill-rule:nonzero;"/>
                    <path d="M158.6,355.6C153.3,339.4 138.2,328.5 121.1,328.6C116.9,328.6 112.8,329.3 108.9,330.5L108.1,330.8L100,306L100.9,305.7C117.4,300.4 135.4,301.8 150.9,309.6C166.4,317.4 178.2,331 183.6,347.6L183.9,348.5L159,356.5L158.6,355.6Z" style="fill-rule:nonzero;"/>
                    <path d="M719.4,336C717.2,342.7 715.5,349.6 714.2,356.5L712.3,356.5C711,349.5 709.3,342.6 707.2,335.8L691.7,290.2L666,290.2L666,292L699.3,376L727,376L760.3,292L760.3,290.2L734.8,290.2L719.4,336Z" style="fill-rule:nonzero;"/>
                    <path d="M825.3,346.5L825.3,348.8C825.3,353.7 821.4,360.4 808.2,360.4C795.3,360.4 788.1,353.2 788.1,336.2L848.9,336.2C849.5,331.4 849.9,326.5 850,321.7C850,302.4 835,288.6 808.6,288.6C777.2,288.6 763.5,308.2 763.5,333.2C763.5,361.6 778.7,377.8 808.1,377.8C843.7,377.8 849.4,360 849.4,350.2C849.4,349.1 849.2,348.1 849.1,347L825.3,346.5ZM808.7,305C818.4,305 826.7,309.9 826.7,319.6C826.7,320.4 826.7,321.1 826.5,321.9L788.7,321.9C789.8,310.1 797.4,305 808.7,305Z" style="fill-rule:nonzero;"/>
                    <path d="M561.4,290.3L544.1,290.3L544.1,310.2L561.4,310.2L561.4,376.1L586.8,376.1L586.8,310.3L628.7,310.3L628.7,376.2L654.1,376.2L654.1,290.4L586.8,290.4L586.8,285.9C586.8,274.9 588.9,269 605.5,269L654.1,269L654.1,248.4L603,248.4C571.9,248.2 561.4,258.2 561.4,290.3Z" style="fill-rule:nonzero;"/>
                    <path d="M409.4,290.3L388.2,290.3C384,299.6 375.9,304.5 363.3,304.5L353.7,304.5L353.7,324.2L383.3,324.2L383.3,355.5L353.7,355.5L353.7,376.1L439,376.1L439,355.4L409.4,355.4L409.4,290.3Z" style="fill-rule:nonzero;"/>
                    <path d="M503.6,330.9C492.1,330.9 482.6,334.9 477.9,338.8L476.5,338.8L478.8,310.2L533.2,310.2L533.2,290.3L456.8,290.3L450.5,356.5L474.6,356.5C479.1,350.7 486.1,347.3 493.5,347.4C507.6,347.4 516.5,354.8 516.5,370.2C516.5,383.2 508.4,392.8 494.8,392.8C478.9,392.8 473.6,383 473.6,373.7C473.6,373 473.6,372.3 473.8,371.6L447.9,372.1C447.7,373.1 447.6,374.2 447.6,375.3C447.6,394.9 462.3,412.9 495.6,412.9C523.6,412.9 544.1,396.4 544.1,369.8C543.9,345.6 528.8,330.9 503.6,330.9Z" style="fill-rule:nonzero;"/>
                </g>
            </g>
        </g>
    </g>
</svg>
