<?xml version="1.0" encoding="UTF-8" standalone="no"?>
<!DOCTYPE svg PUBLIC "-//W3C//DTD SVG 1.1//EN" "http://www.w3.org/Graphics/SVG/1.1/DTD/svg11.dtd">
<svg width="100%" height="100%" viewBox="0 0 800 486" version="1.1" xmlns="http://www.w3.org/2000/svg" xmlns:xlink="http://www.w3.org/1999/xlink" xml:space="preserve" xmlns:serif="http://www.serif.com/" style="fill-rule:evenodd;clip-rule:evenodd;stroke-linejoin:round;stroke-miterlimit:2;">
    <g transform="matrix(2.66667,0,0,2.66667,0,0)">
        <g transform="matrix(3.05511,0,0,3.05511,0.301019,-67.0936)">
            <path d="M83.525,22.099C82.092,22.099 80.724,22.266 79.418,22.658C78.115,23.05 77.004,23.605 76.028,24.356C75.052,25.075 74.271,25.983 73.683,27.028C73.095,28.069 72.798,29.281 72.798,30.649C72.798,32.344 73.351,33.937 74.425,35.37C75.499,36.836 77.26,37.949 79.641,38.696L84.362,40.163C85.959,40.686 87.068,41.234 87.656,41.854C88.244,42.475 88.533,43.22 88.533,44.135C88.533,45.47 87.949,46.515 86.843,47.229C85.736,47.948 84.131,48.306 82.081,48.306C80.779,48.306 79.508,48.177 78.205,47.915C76.935,47.654 75.723,47.261 74.617,46.775C74.29,46.644 73.999,46.513 73.803,46.448C73.607,46.383 73.409,46.352 73.213,46.352C72.723,46.352 72.463,46.675 72.463,47.357L72.463,49.024C72.463,49.318 72.532,49.643 72.663,49.933C72.797,50.239 73.157,50.556 73.675,50.85C74.525,51.34 75.795,51.766 77.424,52.158C79.053,52.55 80.746,52.748 82.44,52.748C84.102,52.748 85.632,52.512 87.098,52.055C88.498,51.63 89.71,51.053 90.719,50.236C91.727,49.452 92.507,48.472 93.095,47.365C93.651,46.258 93.949,44.985 93.949,43.585C93.949,41.89 93.458,40.358 92.449,39.023C91.441,37.688 89.741,36.644 87.393,35.897L82.767,34.429C81.04,33.874 79.84,33.255 79.186,32.635C78.533,32.014 78.205,31.237 78.205,30.322C78.205,28.987 78.728,28.044 79.737,27.427C80.745,26.806 82.217,26.51 84.075,26.51C86.39,26.51 88.478,26.941 90.336,27.786C90.891,28.047 91.311,28.177 91.572,28.177C92.062,28.177 92.322,27.814 92.322,27.132L92.322,25.593C92.322,25.135 92.223,24.781 92.027,24.524C91.831,24.23 91.507,23.964 91.054,23.702C90.727,23.506 90.274,23.308 89.69,23.112C89.102,22.916 88.485,22.757 87.832,22.594C87.146,22.463 86.461,22.333 85.71,22.235C84.991,22.137 84.244,22.099 83.525,22.099ZM16.309,22.171C14.517,22.171 12.818,22.369 11.221,22.793C9.621,23.181 8.253,23.673 7.114,24.261C6.657,24.489 6.368,24.714 6.205,24.939C6.041,25.167 5.973,25.564 5.973,26.087L5.973,27.682C5.973,28.368 6.202,28.687 6.659,28.687C6.79,28.687 6.957,28.657 7.186,28.591C7.41,28.526 7.796,28.397 8.318,28.169C9.457,27.711 10.639,27.358 11.843,27.068C13.048,26.774 14.221,26.637 15.36,26.637C17.872,26.637 19.631,27.128 20.672,28.137C21.68,29.145 22.203,30.874 22.203,33.353L22.203,35.737C20.901,35.443 19.663,35.175 18.455,35.011C17.25,34.848 16.108,34.756 15.001,34.756C11.645,34.756 9.007,35.606 7.018,37.3C5.034,38.995 4.051,41.239 4.051,44.007C4.051,46.617 4.863,48.7 6.46,50.268C8.057,51.832 10.248,52.621 12.984,52.621C16.83,52.621 20.018,51.116 22.562,48.115C22.921,48.866 23.252,49.489 23.575,50.045C23.902,50.567 24.294,51.086 24.747,51.576C25.074,51.87 25.398,52.031 25.72,52.031C25.982,52.031 26.28,51.932 26.574,51.736L28.623,50.372C29.048,50.045 29.245,49.713 29.245,49.391C29.245,49.162 29.177,48.902 29.014,48.641C28.557,47.792 28.234,47.015 27.977,46.296C27.749,45.578 27.618,44.598 27.618,43.393L27.547,43.393L27.547,32.826C27.547,29.241 26.64,26.571 24.843,24.811C23.022,23.055 20.189,22.171 16.309,22.171ZM31.462,22.953C30.94,22.953 30.681,23.252 30.681,23.774C30.681,24.003 30.78,24.425 30.976,25.074L38.632,50.268C38.828,50.889 39.057,51.34 39.318,51.536C39.579,51.765 39.97,51.863 40.554,51.863L43.354,51.863C43.942,51.863 44.4,51.765 44.661,51.536C44.923,51.307 45.12,50.885 45.284,50.236L50.3,29.245L55.348,50.268C55.479,50.921 55.709,51.347 55.97,51.576C56.232,51.805 56.654,51.903 57.27,51.903L60.078,51.903C60.633,51.903 61.052,51.772 61.314,51.576C61.575,51.38 61.804,50.949 62,50.3L69.855,25.106C69.986,24.747 70.046,24.489 70.079,24.293C70.111,24.097 70.15,23.93 70.15,23.766C70.15,23.211 69.852,22.953 69.329,22.953L66.298,22.953C65.71,22.953 65.292,23.084 65.03,23.28C64.802,23.476 64.572,23.899 64.376,24.548L58.738,46.384L53.586,24.548C53.455,23.927 53.233,23.476 52.972,23.28C52.71,23.051 52.28,22.953 51.664,22.953L49.056,22.953C48.468,22.953 48.017,23.084 47.756,23.28C47.495,23.476 47.297,23.899 47.134,24.548L42.062,46.129L36.583,24.556C36.387,23.935 36.19,23.476 35.929,23.28C35.7,23.051 35.277,22.953 34.66,22.953L31.462,22.953ZM16.214,38.632C17.222,38.632 18.235,38.701 19.276,38.832C20.317,38.962 21.324,39.153 22.267,39.382L22.267,40.754C22.267,41.86 22.136,42.805 21.94,43.585C21.744,44.369 21.358,45.054 20.839,45.674C19.957,46.65 18.917,47.364 17.745,47.756C16.573,48.148 15.461,48.346 14.387,48.346C12.889,48.346 11.746,47.954 10.966,47.142C10.149,46.358 9.762,45.22 9.762,43.688C9.762,42.059 10.283,40.822 11.357,39.94C12.431,39.058 14.029,38.632 16.214,38.632ZM90.798,58.642C87.368,58.691 83.318,59.457 80.255,61.609C79.312,62.295 79.473,63.207 80.518,63.076C84.005,62.652 91.703,61.739 93.071,63.499C94.439,65.226 91.535,72.499 90.232,75.725C89.84,76.701 90.694,77.086 91.572,76.339C97.305,71.517 98.797,61.448 97.625,59.982C97.039,59.265 94.229,58.594 90.798,58.642ZM0.718,60.588C-0,60.677 -0.321,61.548 0.439,62.231C13.215,73.77 30.133,80.71 48.904,80.71C62.302,80.71 77.874,76.505 88.597,68.587C90.357,67.281 88.827,65.29 87.034,66.107C75.009,71.191 61.944,73.675 50.045,73.675C32.413,73.675 15.365,68.815 1.547,60.795C1.246,60.616 0.957,60.559 0.718,60.588Z" style="fill-rule:nonzero;"/>
        </g>
    </g>
</svg>
