<svg width="29" height="19" viewBox="0 0 29 19" fill="none" xmlns="http://www.w3.org/2000/svg">
<path d="M12.0759 1.08353L14.3938 3.10246L16.5575 0.939708C17.1314 0.366081 17.926 0.0286834 18.7664 0.00175166C19.6069 -0.0252302 20.4244 0.260407 21.0392 0.795888L27.9929 6.85263C28.6076 7.38806 28.9692 8.12949 28.9981 8.91366C29.027 9.69788 28.7209 10.4607 28.147 11.0343L21.6558 17.5226C21.0819 18.0962 20.2874 18.4336 19.4469 18.4606C18.6064 18.4875 17.7889 18.2019 17.1742 17.6664L14.8563 15.6475L12.6925 17.8102C12.1186 18.3839 11.3241 18.7213 10.4836 18.7483C9.64309 18.7752 8.82557 18.4895 8.21085 17.9541L1.25713 11.8973C0.642389 11.3619 0.280788 10.6205 0.251876 9.8363C0.222969 9.05207 0.529117 8.28922 1.10298 7.71565L7.5942 1.22735C8.16809 0.653771 8.96265 0.316373 9.80313 0.289391C10.6436 0.262409 11.4611 0.548096 12.0759 1.08353ZM19.8014 15.9075L26.2927 9.41916C26.4075 9.30447 26.4687 9.15189 26.4629 8.99505C26.4572 8.83822 26.3848 8.68995 26.2619 8.58282L19.3082 2.52608C19.1852 2.419 19.0217 2.36183 18.8536 2.36724C18.6855 2.37265 18.5266 2.44013 18.4119 2.55486L11.9206 9.04311C11.8058 9.15785 11.7446 9.31038 11.7504 9.46726C11.7562 9.6241 11.8285 9.77237 11.9514 9.87945L18.9051 15.9362C19.0281 16.0433 19.1916 16.1004 19.3597 16.095C19.5278 16.0897 19.6867 16.0222 19.8014 15.9075ZM2.9573 9.3308C2.84253 9.44549 2.7813 9.59807 2.78708 9.7549C2.79286 9.91174 2.86518 10.06 2.98813 10.1671L9.94182 16.2239C10.0648 16.331 10.2283 16.3881 10.3964 16.3827C10.5645 16.3773 10.7234 16.3098 10.8381 16.1951L13.0019 14.0323L10.2204 11.6096C9.6057 11.0742 9.2441 10.3328 9.21518 9.54861C9.18626 8.76438 9.49244 8.00158 10.0663 7.42796L12.6628 4.83265L10.3449 2.81372C10.2219 2.70664 10.0584 2.64952 9.89031 2.65493C9.72223 2.66029 9.56332 2.72777 9.44856 2.8425L2.9573 9.3308Z" fill="#151515"/>
</svg>
