<?xml version="1.0" encoding="UTF-8" standalone="no"?>
<!DOCTYPE svg PUBLIC "-//W3C//DTD SVG 1.1//EN" "http://www.w3.org/Graphics/SVG/1.1/DTD/svg11.dtd">
<svg width="100%" height="100%" viewBox="0 0 29 29" version="1.1" xmlns="http://www.w3.org/2000/svg" xmlns:xlink="http://www.w3.org/1999/xlink" xml:space="preserve" xmlns:serif="http://www.serif.com/" style="fill-rule:evenodd;clip-rule:evenodd;stroke-linejoin:round;stroke-miterlimit:2;">
    <g transform="matrix(1,0,0,1,-0.097523,4.93132)">
        <path d="M12.076,1.084L14.394,3.102L16.558,0.94C17.131,0.366 17.926,0.029 18.766,0.002C19.607,-0.025 20.424,0.26 21.039,0.796L27.993,6.853C28.608,7.388 28.969,8.129 28.998,8.914C29.027,9.698 28.721,10.461 28.147,11.034L21.656,17.523C21.082,18.096 20.287,18.434 19.447,18.461C18.606,18.488 17.789,18.202 17.174,17.666L14.856,15.648L12.693,17.81C12.119,18.384 11.324,18.721 10.484,18.748C9.643,18.775 8.826,18.49 8.211,17.954L1.257,11.897C0.642,11.362 0.281,10.621 0.252,9.836C0.223,9.052 0.529,8.289 1.103,7.716L7.594,1.227C8.168,0.654 8.963,0.316 9.803,0.289C10.644,0.262 11.461,0.548 12.076,1.084ZM19.801,15.908L26.293,9.419C26.408,9.304 26.469,9.152 26.463,8.995C26.457,8.838 26.385,8.69 26.262,8.583L19.308,2.526C19.185,2.419 19.022,2.362 18.854,2.367C18.686,2.373 18.527,2.44 18.412,2.555L11.921,9.043C11.806,9.158 11.745,9.31 11.75,9.467C11.756,9.624 11.829,9.772 11.951,9.879L18.905,15.936C19.028,16.043 19.192,16.1 19.36,16.095C19.528,16.09 19.687,16.022 19.801,15.908ZM2.957,9.331C2.843,9.445 2.781,9.598 2.787,9.755C2.793,9.912 2.865,10.06 2.988,10.167L9.942,16.224C10.065,16.331 10.228,16.388 10.396,16.383C10.565,16.377 10.723,16.31 10.838,16.195L13.002,14.032L10.22,11.61C9.606,11.074 9.244,10.333 9.215,9.549C9.186,8.764 9.492,8.002 10.066,7.428L12.663,4.833L10.345,2.814C10.222,2.707 10.058,2.65 9.89,2.655C9.722,2.66 9.563,2.728 9.449,2.842L2.957,9.331Z" style="fill:rgb(21,21,21);fill-rule:nonzero;"/>
    </g>
</svg>
