<?xml version="1.0" encoding="UTF-8" standalone="no"?>
<!DOCTYPE svg PUBLIC "-//W3C//DTD SVG 1.1//EN" "http://www.w3.org/Graphics/SVG/1.1/DTD/svg11.dtd">
<svg width="100%" height="100%" viewBox="0 0 800 800" version="1.1" xmlns="http://www.w3.org/2000/svg" xmlns:xlink="http://www.w3.org/1999/xlink" xml:space="preserve" xmlns:serif="http://www.serif.com/" style="fill-rule:evenodd;clip-rule:evenodd;stroke-linejoin:round;stroke-miterlimit:2;">
    <g transform="matrix(0.942325,0,0,0.942325,-20.5185,-21.1195)">
        <path d="M373.76,194.172L439.68,255.709L501.217,189.788C517.537,172.305 540.134,162.021 564.037,161.199C587.94,160.377 611.19,169.084 628.673,185.404L826.435,370.013C843.918,386.334 854.202,408.931 855.024,432.834C855.846,456.737 847.14,479.987 830.819,497.47L646.21,695.232C629.889,712.715 607.292,722.999 583.389,723.821C559.486,724.643 536.236,715.936 518.753,699.616L452.832,638.079L391.296,704C374.975,721.483 352.378,731.767 328.475,732.589C304.573,733.411 281.322,724.704 263.839,708.384L66.078,523.775C48.594,507.454 38.311,484.857 37.488,460.954C36.666,437.051 45.373,413.801 61.694,396.318L246.303,198.556C262.623,181.073 285.22,170.789 309.123,169.967C333.026,169.145 356.276,177.852 373.76,194.172ZM593.473,646.003L778.083,448.241C781.347,444.745 783.088,440.094 782.924,435.314C782.759,430.533 780.702,426.014 777.206,422.75L579.444,238.141C575.948,234.876 571.298,233.135 566.517,233.299C561.736,233.464 557.217,235.521 553.953,239.017L369.344,436.779C366.08,440.275 364.338,444.926 364.503,449.706C364.667,454.487 366.724,459.006 370.221,462.27L567.982,646.879C571.479,650.144 576.129,651.885 580.909,651.72C585.69,651.556 590.209,649.499 593.473,646.003ZM114.43,445.547C111.166,449.044 109.424,453.694 109.589,458.474C109.753,463.255 111.81,467.774 115.307,471.038L313.068,655.648C316.565,658.912 321.215,660.653 325.995,660.489C330.776,660.324 335.295,658.267 338.56,654.771L400.096,588.85L320.991,515.007C303.508,498.686 293.224,476.089 292.402,452.186C291.58,428.283 300.287,405.033 316.607,387.55L390.451,308.445L324.531,246.909C321.034,243.645 316.384,241.903 311.603,242.068C306.823,242.232 302.303,244.289 299.039,247.785L114.43,445.547Z" style="fill-rule:nonzero;"/>
    </g>
</svg>
