<?xml version="1.0" encoding="UTF-8" standalone="no"?><!DOCTYPE svg PUBLIC "-//W3C//DTD SVG 1.1//EN" "http://www.w3.org/Graphics/SVG/1.1/DTD/svg11.dtd"><svg width="100%" height="100%" viewBox="0 0 3957 7913" version="1.1" xmlns="http://www.w3.org/2000/svg" xmlns:xlink="http://www.w3.org/1999/xlink" xml:space="preserve" xmlns:serif="http://www.serif.com/" style="fill-rule:evenodd;clip-rule:evenodd;stroke-linejoin:round;stroke-miterlimit:2;"><clipPath id="_clip1"><path d="M3676.56,7920.31l0,-7912.5l-3396.88,-0l0,7912.5l3396.88,-0Z"/></clipPath><g clip-path="url(#_clip1)"><path d="M8192.19,1138.17c-0,-620.096 -510.262,-1130.36 -1130.36,-1130.36l-1130.36,-0c-620.095,-0 -1130.36,510.261 -1130.36,1130.36l0,1130.36c0,620.095 510.262,1130.36 1130.36,1130.36l1130.36,-0c620.096,-0 1130.36,-510.262 1130.36,-1130.36l-0,-1130.36Zm-4521.43,-0c-0,-620.096 -510.262,-1130.36 -1130.36,-1130.36l-1130.36,-0c-620.096,-0 -1130.36,510.261 -1130.36,1130.36l-0,1130.36c-0,620.095 510.261,1130.36 1130.36,1130.36l1130.36,-0c620.095,-0 1130.36,-510.262 1130.36,-1130.36l-0,-1130.36Zm3391.07,3391.07c620.096,0 1130.36,510.262 1130.36,1130.36l-0,1130.36c-0,620.096 -510.262,1130.36 -1130.36,1130.36l-1130.36,-0c-620.095,-0 -1130.36,-510.262 -1130.36,-1130.36l0,-1130.36c0,-620.095 510.262,-1130.36 1130.36,-1130.36l1130.36,0Zm-3391.07,1695.54c-0,310.048 -255.131,565.178 -565.179,565.178l-565.178,0l-0,565.179c-0,310.048 -255.131,565.179 -565.179,565.179c-310.048,-0 -565.178,-255.131 -565.178,-565.179l-0,-565.179l-565.179,0c-310.048,0 -565.178,-255.13 -565.178,-565.178c-0,-310.048 255.13,-565.179 565.178,-565.179l565.179,0l-0,-565.178c-0,-310.048 255.13,-565.179 565.178,-565.179c310.048,0 565.179,255.131 565.179,565.179l-0,565.178l565.178,0c310.048,0 565.179,255.131 565.179,565.179Z" style="fill-rule:nonzero;"/></g></svg>